# xmcd
#
# Track frame offsets: 
#        150
#        16710
#        32912
#        48343
#        63607
#        80283
#        97139
#        113482
#        131426
#        145821
#        163044
#        180150
#        193153
#        208632
#        225516
#        239545
#        254331
#        269946
#        285954
#        302132
#        318129
#
# Disc length: 4467 seconds
#
# Revision: 0
# Processed by: cddbd v1.5.2PL0 Copyright (c) Steve Scherf et al.
# Submitted via: ExactAudioCopy v1.0b1
#
DISCID=22117115
DTITLE=Various Artist - CD-X Vol. 518
DYEAR=2011
DGENRE=Country
TTITLE0=Frankie Ballard - A Buncha Girls
TTITLE1=Ronnie Dunn - Bleed Red (Radio Edit)
TTITLE2=Eli Young Band - Crazy Girl
TTITLE3=Ashley Gearing - Five More Minutes
TTITLE4=Darius Rucker - This
TTITLE5=Chris Young - Tomorrow
TTITLE6=Walker Hayes - Why Wait For Summer
TTITLE7=Keith Urban - Without You
TTITLE8=Jeff Cook and The Allstar Goodtime Band - Waitin' On Willie To S
TTITLE8=ing
TTITLE9=Steve Azar - Hard Road (Radio Mix)
TTITLE10=Due West - When The Smoke Clears
TTITLE11=Colt Ford - Country Thang
TTITLE12=Adam Fisher - Freight Train
TTITLE13=Susan Cattaneo - Girl's Night Out
TTITLE14=Jason Thomas - I'm Your Radio
TTITLE15=Denae Gardner - Runaround
TTITLE16=Sarah Darling - Something To Do With Your Hands
TTITLE17=Keith Bryant - The Note
TTITLE18=Steve Cheers - The Speed Of Love
TTITLE19=Amber Hayes - Wait
TTITLE20=Julie Ingram - You The Man Babe
EXTD=
EXTT0=
EXTT1=
EXTT2=
EXTT3=
EXTT4=
EXTT5=
EXTT6=
EXTT7=
EXTT8=
EXTT9=
EXTT10=
EXTT11=
EXTT12=
EXTT13=
EXTT14=
EXTT15=
EXTT16=
EXTT17=
EXTT18=
EXTT19=
EXTT20=
PLAYORDER=
